<svg id="icon" height="512" viewBox="0 0 128 128" width="512" xmlns="http://www.w3.org/2000/svg"><path d="m8.089 34.875 11.768 59.946a6.455 6.455 0 0 0 6.308 5.072h75.672a6.463 6.463 0 0 0 6.308-5.072l11.768-59.945zm14.12 30.757-2.988-14.2a2.92 2.92 0 0 1 2.785-3.791 4.622 4.622 0 0 1 4.252 3.791l2.509 14.2a2.612 2.612 0 0 1 -2.667 3.191 4.154 4.154 0 0 1 -3.891-3.191zm7.729 26.182a3.564 3.564 0 0 1 -3.44-2.573l-2.38-11.353a2.433 2.433 0 0 1 2.545-3 3.868 3.868 0 0 1 3.717 3l2.011 11.353a2.243 2.243 0 0 1 -2.453 2.573zm5.109-26.182-2.075-14.2a3.131 3.131 0 0 1 3.034-3.791 4.25 4.25 0 0 1 4 3.791l1.6 14.2a2.807 2.807 0 0 1 -2.868 3.191 3.835 3.835 0 0 1 -3.691-3.191zm6.244 26.182a3.289 3.289 0 0 1 -3.274-2.573l-1.651-11.353a2.617 2.617 0 0 1 2.748-3 3.561 3.561 0 0 1 3.514 3l1.282 11.353a2.413 2.413 0 0 1 -2.619 2.573zm5.441-40.385a3.362 3.362 0 0 1 3.274-3.791 3.915 3.915 0 0 1 3.754 3.791l.682 14.2a3.026 3.026 0 0 1 -3.071 3.191 3.545 3.545 0 0 1 -3.5-3.191zm5.912 40.385a3.037 3.037 0 0 1 -3.108-2.573l-.922-11.353a2.82 2.82 0 0 1 2.942-3 3.293 3.293 0 0 1 3.329 3l.544 11.353a2.6 2.6 0 0 1 -2.785 2.573zm14.3-2.573a2.974 2.974 0 0 1 -5.893 0l-.184-11.353a3.134 3.134 0 0 1 6.262 0zm.332-23.609a3.285 3.285 0 0 1 -6.567 0l-.231-14.2a3.528 3.528 0 1 1 7.037 0zm11.191 23.609a3.04 3.04 0 0 1 -3.117 2.573 2.593 2.593 0 0 1 -2.776-2.573l.544-11.353a3.293 3.293 0 0 1 3.329-3 2.813 2.813 0 0 1 2.933 3zm1.651-23.609a3.536 3.536 0 0 1 -3.486 3.191 3.033 3.033 0 0 1 -3.08-3.191l.682-14.2a3.93 3.93 0 0 1 3.766-3.793 3.367 3.367 0 0 1 3.274 3.791zm11.519 12.256-1.651 11.353a3.292 3.292 0 0 1 -3.286 2.573 2.4 2.4 0 0 1 -2.61-2.573l1.273-11.353a3.571 3.571 0 0 1 3.523-3 2.617 2.617 0 0 1 2.751 3zm3.385-26.459-2.066 14.2a3.835 3.835 0 0 1 -3.689 3.191 2.813 2.813 0 0 1 -2.877-3.191l1.6-14.2a4.25 4.25 0 0 1 4-3.791 3.125 3.125 0 0 1 3.032 3.791zm8.863 26.459-2.379 11.353a3.567 3.567 0 0 1 -3.449 2.573 2.233 2.233 0 0 1 -2.444-2.573l2.011-11.353a3.858 3.858 0 0 1 3.708-3 2.435 2.435 0 0 1 2.553 3zm1.909-12.256a4.156 4.156 0 0 1 -3.9 3.191 2.616 2.616 0 0 1 -2.665-3.191l2.518-14.2a4.613 4.613 0 0 1 4.253-3.793 2.91 2.91 0 0 1 2.776 3.791z" fill="#ffc943"/><path d="m118.07 44.269 1.844-9.394h-111.825l1.845 9.394z" fill="#f7b521"/><path d="m8.089 34.875 11.768 59.946a6.455 6.455 0 0 0 6.308 5.072h75.672a6.463 6.463 0 0 0 6.308-5.072l11.768-59.945zm14.12 30.757-2.988-14.2a2.92 2.92 0 0 1 2.785-3.791 4.622 4.622 0 0 1 4.252 3.791l2.509 14.2a2.612 2.612 0 0 1 -2.667 3.191 4.154 4.154 0 0 1 -3.891-3.191zm7.729 26.182a3.564 3.564 0 0 1 -3.44-2.573l-2.38-11.353a2.433 2.433 0 0 1 2.545-3 3.868 3.868 0 0 1 3.717 3l2.011 11.353a2.243 2.243 0 0 1 -2.453 2.573zm5.109-26.182-2.075-14.2a3.131 3.131 0 0 1 3.034-3.791 4.25 4.25 0 0 1 4 3.791l1.6 14.2a2.807 2.807 0 0 1 -2.868 3.191 3.835 3.835 0 0 1 -3.691-3.191zm6.244 26.182a3.289 3.289 0 0 1 -3.274-2.573l-1.651-11.353a2.617 2.617 0 0 1 2.748-3 3.561 3.561 0 0 1 3.514 3l1.282 11.353a2.413 2.413 0 0 1 -2.619 2.573zm5.441-40.385a3.362 3.362 0 0 1 3.274-3.791 3.915 3.915 0 0 1 3.754 3.791l.682 14.2a3.026 3.026 0 0 1 -3.071 3.191 3.545 3.545 0 0 1 -3.5-3.191zm5.912 40.385a3.037 3.037 0 0 1 -3.108-2.573l-.922-11.353a2.82 2.82 0 0 1 2.942-3 3.293 3.293 0 0 1 3.329 3l.544 11.353a2.6 2.6 0 0 1 -2.785 2.573zm14.3-2.573a2.974 2.974 0 0 1 -5.893 0l-.184-11.353a3.134 3.134 0 0 1 6.262 0zm.332-23.609a3.285 3.285 0 0 1 -6.567 0l-.231-14.2a3.528 3.528 0 1 1 7.037 0zm11.191 23.609a3.04 3.04 0 0 1 -3.117 2.573 2.593 2.593 0 0 1 -2.776-2.573l.544-11.353a3.293 3.293 0 0 1 3.329-3 2.813 2.813 0 0 1 2.933 3zm1.651-23.609a3.536 3.536 0 0 1 -3.486 3.191 3.033 3.033 0 0 1 -3.08-3.191l.682-14.2a3.93 3.93 0 0 1 3.766-3.793 3.367 3.367 0 0 1 3.274 3.791zm11.519 12.256-1.651 11.353a3.292 3.292 0 0 1 -3.286 2.573 2.4 2.4 0 0 1 -2.61-2.573l1.273-11.353a3.571 3.571 0 0 1 3.523-3 2.617 2.617 0 0 1 2.751 3zm3.385-26.459-2.066 14.2a3.835 3.835 0 0 1 -3.689 3.191 2.813 2.813 0 0 1 -2.877-3.191l1.6-14.2a4.25 4.25 0 0 1 4-3.791 3.125 3.125 0 0 1 3.032 3.791zm8.863 26.459-2.379 11.353a3.567 3.567 0 0 1 -3.449 2.573 2.233 2.233 0 0 1 -2.444-2.573l2.011-11.353a3.858 3.858 0 0 1 3.708-3 2.435 2.435 0 0 1 2.553 3zm1.909-12.256a4.156 4.156 0 0 1 -3.9 3.191 2.616 2.616 0 0 1 -2.665-3.191l2.518-14.2a4.613 4.613 0 0 1 4.253-3.793 2.91 2.91 0 0 1 2.776 3.791z" fill="none" stroke="#2f3a5a" stroke-miterlimit="10" stroke-width="2"/><path d="m121.665 28.107h-115.33a5.335 5.335 0 0 0 0 10.669h115.33a5.335 5.335 0 0 0 0-10.669z" fill="#ffc943"/><path d="m121.665 39.776h-115.33a6.335 6.335 0 1 1 0-12.669h115.33a6.335 6.335 0 1 1 0 12.669zm-115.33-10.669a4.335 4.335 0 1 0 0 8.669h115.33a4.335 4.335 0 1 0 0-8.669z" fill="#2f3a5a"/><g fill="#f0f5f9" opacity=".5"><path d="m36.527 32.869h-24.761a1 1 0 0 1 0-2h24.761a1 1 0 1 1 0 2z"/><path d="m44.743 32.869h-3.817a1 1 0 0 1 0-2h3.817a1 1 0 1 1 0 2z"/></g></svg>