<svg height="512" viewBox="0 0 60 60" width="512" xmlns="http://www.w3.org/2000/svg"><g id="Page-1" fill="none" fill-rule="evenodd"><g id="025---Ironing" fill-rule="nonzero"><g id="Color" transform="translate(1 1)"><path id="Shape" d="m58 27c0 2.209139-1.790861 4-4 4h-50c-2.209139 0-4-1.790861-4-4s1.790861-4 4-4h3c0 1.6568542 1.34314575 3 3 3h11c1.6568542 0 3-1.3431458 3-3h10v3c0 .5522847.4477153 1 1 1h16c.5522847 0 1-.4477153 1-1v-3h2c2.209139 0 4 1.790861 4 4z" fill="#00bcd4"/><path id="Shape" d="m32 27h3c-.5522847 0-1-.4477153-1-1v-3h-3v3c0 .5522847.4477153 1 1 1z" fill="#00838f"/><path id="Shape" d="m7 26h3c-1.65685425 0-3-1.3431458-3-3h-3c0 1.6568542 1.34314575 3 3 3z" fill="#00838f"/><path id="Shape" d="m54 23h-2v.14c1.9260077.5228481 3.1719503 2.3853678 2.9200729 4.3651238-.2518773 1.979756-1.9245019 3.4709567-3.9200729 3.4948762h3c2.209139 0 4-1.790861 4-4s-1.790861-4-4-4z" fill="#00838f"/><path id="Shape" d="m45.23 31-12.23 13.5 8.62 9.5h-7.62c-.1395832-.0152785-.2804168-.0152785-.42 0l-4.58-5-4.58 5.07c-.1369897-.0387525-.2778467-.0622286-.42-.07h-7.62l8.62-9.5-12.23-13.5h8.08l8.15 9 8.15-9z" fill="#607d8b"/><g fill="#37474f"><path id="Shape" d="m27.5 38.36-6.65-7.36h-3l8.15 9.02z"/><path id="Shape" d="m26 49-4.53 5h2.53c.1395832-.0152785.2804168-.0152785.42 0l3.08-3.41z"/><path id="Shape" d="m33.58 54.05c.1377454-.0320034.278591-.0487707.42-.05h-.47z"/><path id="Shape" d="m45.24 31h-3l-.01.01-12.19 13.49 8.58 9.5h3l-8.58-9.5 12.19-13.49z"/></g><path id="Shape" d="m51 22h-16c.42-15.13 5.61-20.48 7.38-21.8.3514198-.25679567.8285802-.25679567 1.18 0 1.8 1.32 6.99 6.67 7.44 21.8z" fill="#607d8b"/><path id="Shape" d="m43.59.2c-.3514198-.25679567-.8285802-.25679567-1.18 0-.3214138.24536865-.6254726.5126731-.91.8 2.21 2.19 6.11 8 6.47 21h3c-.42-15.13-5.61-20.48-7.38-21.8z" fill="#37474f"/><rect id="Rectangle-path" fill="#f5f5f5" height="5" rx="1" width="18" x="34" y="22"/><path id="Shape" d="m51 22h-3c.5522847 0 1 .4477153 1 1v3c0 .5522847-.4477153 1-1 1h3c.5522847 0 1-.4477153 1-1v-3c0-.5522847-.4477153-1-1-1z" fill="#cfd8dc"/><path id="Shape" d="m24 23c0 1.6568542-1.3431458 3-3 3h-11c-1.65685425 0-3-1.3431458-3-3s1.34314575-3 3-3h11c1.6568542 0 3 1.3431458 3 3z" fill="#a4c400"/><path id="Shape" d="m21 20h-3c1.6568542 0 3 1.3431458 3 3s-1.3431458 3-3 3h3c1.6568542 0 3-1.3431458 3-3s-1.3431458-3-3-3z" fill="#90ac00"/><path id="Shape" d="m24 17c0 1.6568542-1.3431458 3-3 3h-11c-1.65685425 0-3-1.3431458-3-3s1.34314575-3 3-3h11c1.6568542 0 3 1.3431458 3 3z" fill="#e91e63"/><path id="Shape" d="m21 14h-3c1.6568542 0 3 1.3431458 3 3s-1.3431458 3-3 3h3c1.6568542 0 3-1.3431458 3-3s-1.3431458-3-3-3z" fill="#ad1457"/><path id="Shape" d="m24 11c0 1.6568542-1.3431458 3-3 3h-11c-1.65685425 0-3-1.3431458-3-3 0-1.65685425 1.34314575-3 3-3h11c1.6568542 0 3 1.34314575 3 3z" fill="#ffeb3a"/><path id="Shape" d="m21 8h-3c1.6568542 0 3 1.34314575 3 3 0 1.6568542-1.3431458 3-3 3h3c1.6568542 0 3-1.3431458 3-3 0-1.65685425-1.3431458-3-3-3z" fill="#fdd834"/><path id="Shape" d="m24 5c0 1.65685425-1.3431458 3-3 3h-11c-1.65685425 0-3-1.34314575-3-3s1.34314575-3 3-3h11c1.6568542 0 3 1.34314575 3 3z" fill="#a4c400"/><path id="Shape" d="m21 2h-3c1.6568542 0 3 1.34314575 3 3s-1.3431458 3-3 3h3c1.6568542 0 3-1.34314575 3-3s-1.3431458-3-3-3z" fill="#90ac00"/><path id="Shape" d="m26 56c0 1.1045695-.8954305 2-2 2h-12c-1.1045695 0-2-.8954305-2-2s.8954305-2 2-2h12c.1395832-.0152785.2804168-.0152785.42 0 .9382758.2012834 1.6013473 1.0406144 1.58 2z" fill="#f5f5f5"/><path id="Shape" d="m24.42 54.05c-.1377454-.0320034-.278591-.0487707-.42-.05h-3c.1395832-.0152785.2804168-.0152785.42 0 .9382758.2012834 1.6013473 1.0406144 1.58 2 0 1.1045695-.8954305 2-2 2h3c1.1045695 0 2-.8954305 2-2-.0025419-.9406876-.6602843-1.7524583-1.58-1.95z" fill="#cfd8dc"/><path id="Shape" d="m48 56c0 1.1045695-.8954305 2-2 2h-12c-1.1045695 0-2-.8954305-2-2-.0213473-.9593856.6417242-1.7987166 1.58-2 .1395832-.0152785.2804168-.0152785.42 0h12c1.1045695 0 2 .8954305 2 2z" fill="#f5f5f5"/><path id="Shape" d="m46 54h-3c1.1045695 0 2 .8954305 2 2s-.8954305 2-2 2h3c1.1045695 0 2-.8954305 2-2s-.8954305-2-2-2z" fill="#cfd8dc"/></g><g id="Outline" fill="#000"><path id="Shape" d="m55 33c2.7614237 0 5-2.2385763 5-5s-2.2385763-5-5-5h-1.28c-.1808797-.3210392-.4521169-.5818442-.78-.75-.59-15.31-6.07-20.59-7.75-21.85-.7070059-.52339814-1.6729941-.52339814-2.38 0-1.68 1.26-7.16 6.54-7.75 21.85-.3278831.1681558-.5991203.4289608-.78.75h-8.42c-.2062744-.774701-.6378281-1.4707554-1.24-2 .8610017-.7593322 1.3542487-1.8519977 1.3542487-3s-.493247-2.2406678-1.3542487-3c.8610017-.7593322 1.3542487-1.8519977 1.3542487-3s-.493247-2.24066783-1.3542487-3c1.2442168-1.09722725 1.6820469-2.84857927 1.1005377-4.40222983s-2.0616616-2.58712909-3.7205377-2.59777017h-11c-1.65887606.01064108-3.1390285 1.04411961-3.72053771 2.59777017s-.14367906 3.30500258 1.10053771 4.40222983c-.86100175.75933217-1.35424869 1.8519977-1.35424869 3s.49324694 2.2406678 1.35424869 3c-.86100175.7593322-1.35424869 1.8519977-1.35424869 3s.49324694 2.2406678 1.35424869 3c-.60217187.5292446-1.03372563 1.225299-1.24 2h-2.14c-2.76142375 0-5 2.2385763-5 5s2.23857625 5 5 5h8.32l11.29 12.5-7.67 8.5h-3.94c-1.6568542 0-3 1.3431458-3 3s1.3431458 3 3 3h12c1.6568542 0 3-1.3431458 3-3-.007368-.8445917-.3704258-1.6469496-1-2.21l3-3.32 3 3.32c-.6295742.5630504-.992632 1.3654083-1 2.21 0 1.6568542 1.3431458 3 3 3h12c1.6568542 0 3-1.3431458 3-3s-1.3431458-3-3-3h-3.94l-7.67-8.5 11.29-12.5h2.32v6c0 2.209139 1.790861 4 4 4 1.1045695 0 2 .8954305 2 2v3c0 2.209139 1.790861 4 4 4 .5522847 0 1-.4477153 1-1s-.4477153-1-1-1c-1.1045695 0-2-.8954305-2-2v-3c0-2.209139-1.790861-4-4-4-1.1045695 0-2-.8954305-2-2v-6zm-19-9h16v3h-16zm8-22c1.06.79 6.3 5.45 6.94 20h-13.87c.64-14.55 5.93-19.21 6.93-20zm-35 4c0-1.1045695.8954305-2 2-2h11c1.1045695 0 2 .8954305 2 2s-.8954305 2-2 2h-11c-1.1045695 0-2-.8954305-2-2zm0 6c0-1.1045695.8954305-2 2-2h11c1.1045695 0 2 .8954305 2 2s-.8954305 2-2 2h-11c-1.1045695 0-2-.8954305-2-2zm0 6c0-1.1045695.8954305-2 2-2h11c1.1045695 0 2 .8954305 2 2s-.8954305 2-2 2h-11c-1.1045695 0-2-.8954305-2-2zm13 4c1.1045695 0 2 .8954305 2 2s-.8954305 2-2 2h-11c-1.1045695 0-2-.8954305-2-2s.8954305-2 2-2zm-20 6c0-1.6568542 1.34314575-3 3-3h2.14c.45478205 1.7614029 2.04084302 2.9940928 3.86 3h11c1.819157-.0059072 3.4052179-1.2385971 3.86-3h8.14v2c0 1.1045695.8954305 2 2 2h16c1.1045695 0 2-.8954305 2-2v-2h1c1.6568542 0 3 1.3431458 3 3s-1.3431458 3-3 3h-50c-1.65685425 0-3-1.3431458-3-3zm33.9 5-5.9 6.53-5.9-6.53zm-10.9 25h-12c-.5522847 0-1-.4477153-1-1s.4477153-1 1-1h12c.5522847 0 1 .4477153 1 1s-.4477153 1-1 1zm23-1c0 .5522847-.4477153 1-1 1h-12c-.5522847 0-1-.4477153-1-1s.4477153-1 1-1h12c.5522847 0 1 .4477153 1 1zm-14.7-12.17c-.3435185.3806191-.3435185.9593809 0 1.34l7.07 7.83h-5.37l-4.24-4.69c-.1895245-.2085142-.458224-.3273931-.74-.3273931s-.5504755.1188789-.74.3273931l-4.28 4.69h-5.37l7.07-7.83c.3435185-.3806191.3435185-.9593809 0-1.34l-10.7-11.83h5.4l7.85 8.69c.1895245.2085142.458224.3273931.74.3273931s.5504755-.1188789.74-.3273931l7.86-8.69h5.41z"/><circle id="Oval" cx="40" cy="19" r="1"/><circle id="Oval" cx="30" cy="46" r="1"/><circle id="Oval" cx="41" cy="14" r="1"/><circle id="Oval" cx="42" cy="9" r="1"/><circle id="Oval" cx="48" cy="19" r="1"/><circle id="Oval" cx="47" cy="14" r="1"/><circle id="Oval" cx="46" cy="9" r="1"/></g></g></g></svg>