<svg id="Capa_1" enable-background="new 0 0 512 512" height="512" viewBox="0 0 512 512" width="512" xmlns="http://www.w3.org/2000/svg"><g><g><path d="m407 466c57.897 0 105-47.103 105-105s-47.103-105-105-105h-192v210z" fill="#dcd2cd"/><path d="m15 421c0 16.569 13.431 30 30 30h180c49.706 0 90-40.294 90-90 0-49.706-40.294-90-90-90h-150c-33.137 0-60 26.863-60 60 0 33.137 26.863 60 60 60h-30c-16.568 0-30 13.431-30 30z" fill="#ebe1dc"/><path d="m225 271h-60v180h60c49.706 0 90-40.294 90-90s-40.294-90-90-90z" fill="#dcd2cd"/><path d="m0 421c0 24.813 20.187 45 45 45h180c57.897 0 105-47.103 105-105s-47.103-105-105-105h-150c-41.355 0-75 33.645-75 75 0 20.16 8.01 38.474 20.997 51.965-12.605 7.983-20.997 22.043-20.997 38.035zm75-135h150c41.355 0 75 33.645 75 75s-33.645 75-75 75h-180c-8.271 0-15-6.729-15-15s6.729-15 15-15h30 150c24.813 0 45-20.187 45-45s-20.187-45-45-45h-150c-8.284 0-15 6.716-15 15s6.716 15 15 15h150c8.271 0 15 6.729 15 15s-6.729 15-15 15h-150c-24.813 0-45-20.187-45-45s20.187-45 45-45z" fill="#fff5f5"/><g fill="#ebe1dc"><path d="m225 256h-60v30h60c41.355 0 75 33.645 75 75s-33.645 75-75 75h-60v30h60c57.897 0 105-47.103 105-105s-47.103-105-105-105z"/><path d="m270 361c0-24.813-20.187-45-45-45h-60v30h60c8.271 0 15 6.729 15 15s-6.729 15-15 15h-60v30h60c24.813 0 45-20.187 45-45z"/></g></g><g><path d="m105 46c-57.897 0-105 47.103-105 105s47.103 105 105 105h192v-210z" fill="#edc472"/><path d="m497 91c0-16.569-13.431-30-30-30h-180c-49.706 0-90 40.294-90 90 0 49.706 40.294 90 90 90h150c33.137 0 60-26.863 60-60 0-33.137-26.863-60-60-60h30c16.568 0 30-13.431 30-30z" fill="#edc472"/><path d="m497 91c0-16.569-13.431-30-30-30h-120v180h90c33.137 0 60-26.863 60-60s-26.863-60-60-60h30c16.568 0 30-13.431 30-30z" fill="#d6995c"/><path d="m512 91c0-24.813-20.187-45-45-45h-180c-57.897 0-105 47.103-105 105s47.103 105 105 105h150c41.355 0 75-33.645 75-75 0-20.16-8.01-38.474-20.997-51.965 12.605-7.983 20.997-22.043 20.997-38.035zm-75 135h-150c-41.355 0-75-33.645-75-75s33.645-75 75-75h180c8.271 0 15 6.729 15 15s-6.729 15-15 15h-30-150c-24.813 0-45 20.187-45 45s20.187 45 45 45h150c8.284 0 15-6.716 15-15s-6.716-15-15-15h-150c-8.271 0-15-6.729-15-15s6.729-15 15-15h150c24.813 0 45 20.187 45 45s-20.187 45-45 45z" fill="#fcf2b6"/><g fill="#edc472"><path d="m512 91c0-24.813-20.187-45-45-45h-120v30h120c8.271 0 15 6.729 15 15s-6.729 15-15 15h-30-90v30h90c24.813 0 45 20.187 45 45s-20.187 45-45 45h-90v30h90c41.355 0 75-33.645 75-75 0-20.16-8.01-38.474-20.997-51.965 12.605-7.983 20.997-22.043 20.997-38.035z"/><path d="m452 181c0-8.284-6.716-15-15-15h-90v30h90c8.284 0 15-6.716 15-15z"/></g></g></g></svg>