<?xml version="1.0" encoding="iso-8859-1"?>
<!-- Generator: Adobe Illustrator 19.0.0, SVG Export Plug-In . SVG Version: 6.00 Build 0)  -->
<svg version="1.1" id="Capa_1" xmlns="http://www.w3.org/2000/svg" xmlns:xlink="http://www.w3.org/1999/xlink" x="0px" y="0px"
	 viewBox="0 0 512 512" style="enable-background:new 0 0 512 512;" xml:space="preserve">
<path style="fill:#F5A338;" d="M145.067,59.731v102.4c0,9.429,7.637,17.067,17.067,17.067h256V42.664h-256
	C152.704,42.664,145.067,50.301,145.067,59.731z"/>
<rect x="418.133" y="68.264" style="fill:#FBCCAD;" width="93.867" height="85.333"/>
<path style="fill:#97D3E6;" d="M358.4,298.664H153.6l39.689-171.981C200.03,97.482,226.031,76.797,256,76.797l0,0
	c29.969,0,55.97,20.685,62.711,49.886L358.4,298.664z"/>
<g>
	
		<rect x="290.983" y="161.563" transform="matrix(-0.9923 0.124 -0.124 -0.9923 626.1182 435.1835)" style="fill:#7DBDD1;" width="17.067" height="151.026"/>
	
		<rect x="165.636" y="243.195" transform="matrix(-0.1788 0.9839 -0.9839 -0.1788 499.1497 86.8311)" style="fill:#7DBDD1;" width="95.404" height="17.058"/>
</g>
<path style="fill:#F9B44D;" d="M162.133,42.664h59.733c9.429,0,17.067,7.637,17.067,17.067v102.4
	c0,9.429-7.637,17.067-17.067,17.067h-59.733c-9.429,0-17.067-7.637-17.067-17.067v-102.4
	C145.067,50.301,152.704,42.664,162.133,42.664z"/>
<path style="fill:#F5A338;" d="M221.867,34.131H204.8v17.067h17.067c4.71,0,8.533,3.823,8.533,8.533v8.533h-51.2v17.067h51.2v17.067
	h-51.2v17.067h51.2v17.067h-51.2v17.067h51.2v8.533c0,4.71-3.823,8.533-8.533,8.533H179.2v17.067h42.667
	c14.14,0,25.6-11.46,25.6-25.6v-102.4C247.467,45.591,236.006,34.131,221.867,34.131z"/>
<g>
	<circle style="fill:#EBEBEB;" cx="34.133" cy="102.397" r="25.6"/>
	<circle style="fill:#EBEBEB;" cx="85.333" cy="179.197" r="17.067"/>
</g>
<path style="fill:#F9B44D;" d="M247.467,42.664H281.6l-25.293-25.293c-11.785-11.785-30.891-11.776-42.675,0.009
	c-5.649,5.649-8.832,13.321-8.832,21.325v25.293c0,11.785,9.549,21.333,21.333,21.333c11.785,0,21.333-9.557,21.333-21.333V42.664z"
	/>
<g>
	<path style="fill:#EBEBEB;" d="M212.565,298.664c4.267-20.42-8.823-40.439-29.252-44.706c-10.752-2.244-21.956,0.299-30.677,6.972
		v-0.188c0.444-16.759-12.774-30.703-29.534-31.155c-16.759-0.452-30.703,12.774-31.155,29.534
		c-0.051,2.031,0.094,4.062,0.444,6.067c-14.089-8.772-32.623-4.463-41.404,9.626c-4.42,7.117-5.675,15.761-3.456,23.851H212.565z"
		/>
	<path style="fill:#EBEBEB;" d="M443.298,298.664c0.247-1.408,0.393-2.833,0.435-4.267c0.077-16.418-13.175-29.79-29.594-29.867
		c-2.244-0.009-4.48,0.23-6.665,0.725c-6.673-20.079-28.356-30.95-48.444-24.286c-20.079,6.673-30.95,28.356-24.286,48.444
		c1.084,3.277,2.611,6.383,4.531,9.25H443.298z"/>
</g>
<g>
	<polygon style="fill:#4398D1;" points="435.2,503.464 76.8,503.464 42.667,332.797 469.333,332.797 	"/>
	<path style="fill:#4398D1;" d="M25.6,298.664h460.8c9.429,0,17.067,7.637,17.067,17.067l0,0c0,9.429-7.637,17.067-17.067,17.067
		H25.6c-9.429,0-17.067-7.637-17.067-17.067l0,0C8.533,306.301,16.171,298.664,25.6,298.664z"/>
</g>
<path style="fill:#EBEBEB;" d="M379.409,503.464c2.97-5.069,4.557-10.829,4.591-16.708c0.051-18.603-14.985-33.732-33.587-33.792
	c-15.07-0.043-28.331,9.916-32.486,24.405c-9.532-10.334-25.634-10.982-35.968-1.451c-7.578,6.997-10.189,17.869-6.613,27.546
	L379.409,503.464L379.409,503.464z"/>
<polygon style="fill:#398CC4;" points="464.64,356.264 469.333,332.797 42.667,332.797 47.36,356.264 "/>
<path style="fill:#97D3E6;" d="M179.2,298.664h-68.267v85.333c0,9.429,7.637,17.067,17.067,17.067l0,0
	c9.429,0,17.067-7.637,17.067-17.067v-34.133c0-9.429,7.637-17.067,17.067-17.067l0,0c9.429,0,17.067,7.637,17.067,17.067v8.533
	c0,9.429,7.637,17.067,17.067,17.067l0,0c9.429,0,17.067-7.637,17.067-17.067v-59.733H179.2z"/>
<path d="M512,76.797V59.731h-85.333V42.664c0-4.71-3.823-8.533-8.533-8.533H285.133l-22.801-22.793
	c-15.036-15.078-39.441-15.121-54.519-0.085c-6.178,6.153-10.086,14.217-11.085,22.878h-34.594c-14.14,0-25.6,11.46-25.6,25.6v102.4
	c0,14.14,11.46,25.6,25.6,25.6h8.303l-13.039,56.533c-9.054-19.422-32.128-27.827-51.55-18.773
	c-11.162,5.205-19.191,15.394-21.632,27.46c-2.441-0.495-4.924-0.742-7.415-0.742c-21.069,0.034-38.272,16.853-38.775,37.922H25.6
	c-14.14,0-25.6,11.46-25.6,25.6s11.46,25.6,25.6,25.6h10.069l32.768,163.84c0.811,3.968,4.309,6.827,8.363,6.827h358.4
	c4.053,0,7.552-2.85,8.363-6.827l32.768-163.84H486.4c14.14,0,25.6-11.46,25.6-25.6s-11.46-25.6-25.6-25.6h-34.56
	c-2.005-19.866-19.055-34.782-39.006-34.133c-11.196-22.17-37.803-31.676-60.51-21.623l-10.761-46.643h76.57
	c4.71,0,8.533-3.823,8.533-8.533v-17.067H512v-17.067h-85.333V76.797H512z M213.333,38.705
	c-0.009-11.947,9.677-21.641,21.623-21.641c5.743,0,11.247,2.278,15.309,6.34l10.735,10.726h-22.067v29.867
	c0,2.423-0.7,4.787-2.005,6.827l-0.256,0.051l0.077,0.273c-3.951,5.862-11.904,7.415-17.766,3.465
	c-3.533-2.381-5.649-6.357-5.649-10.615V38.705z M153.6,162.131v-102.4c0-4.71,3.823-8.533,8.533-8.533h34.133v12.8
	c0.043,1.434,0.188,2.859,0.435,4.267H179.2v17.067h26.095c5.555,5.47,13.039,8.533,20.838,8.533
	c1.434-0.043,2.859-0.188,4.267-0.435v8.969h-51.2v17.067h51.2v17.067h-51.2v17.067h51.2v8.533c0,4.71-3.823,8.533-8.533,8.533
	h-59.733C157.423,170.664,153.6,166.841,153.6,162.131z M196.267,187.731h25.6c14.14,0,25.6-11.46,25.6-25.6V86.047
	c28.937-4.71,56.525,13.952,62.933,42.556l26.854,116.403c-11.529,11.964-15.778,29.167-11.153,45.124h-11.366l-16.137-129.058
	l-16.93,2.116l15.863,126.942h-75.716c-0.102-5.922-1.34-11.776-3.661-17.229l12.1-66.56l-16.777-3.055l-9.344,51.371
	c-8.166-6.485-18.295-10.018-28.723-10.018c-0.205,0-0.393,0.051-0.589,0.051l13.133-56.96H196.267z M162.133,324.264
	c-14.14,0-25.6,11.46-25.6,25.6v34.133c0,4.71-3.823,8.533-8.533,8.533c-4.71,0-8.533-3.823-8.533-8.533v-76.8H204.8v51.2
	c0,4.71-3.823,8.533-8.533,8.533s-8.533-3.823-8.533-8.533v-8.533C187.733,335.724,176.273,324.264,162.133,324.264z M76.8,269.275
	c3.959,0.017,7.834,1.135,11.196,3.217c2.85,1.664,6.409,1.527,9.131-0.341c2.765-1.903,4.198-5.214,3.686-8.533
	c-0.171-0.964-0.282-1.937-0.316-2.91c-0.085-12.049,9.617-21.879,21.658-21.956c12.041-0.077,21.879,9.617,21.956,21.658
	c0,0.171,0,0.333,0,0.486c0,4.71,3.823,8.533,8.533,8.533c1.843,0,3.644-0.597,5.12-1.707c5.052-3.891,11.247-6.016,17.63-6.042
	c15.872,0,28.885,12.587,29.406,28.45H55.006C55.526,278.466,65.126,269.284,76.8,269.275z M17.067,315.731
	c0-4.71,3.823-8.533,8.533-8.533h76.8v17.067H25.6C20.89,324.264,17.067,320.441,17.067,315.731z M282.308,494.931
	c0-9.429,7.637-17.067,17.067-17.067c4.685,0,9.165,1.946,12.356,5.376c3.243,3.422,8.636,3.575,12.066,0.333
	c1.101-1.041,1.911-2.364,2.33-3.823c3.029-10.803,12.877-18.261,24.098-18.244c13.935,0.017,25.225,11.315,25.242,25.25
	c-0.009,2.79-0.503,5.555-1.459,8.175H282.308z M428.228,494.931h-36.617c0.589-2.688,0.896-5.427,0.922-8.175
	c0.077-23.296-18.748-42.249-42.052-42.325c-14.635-0.051-28.245,7.492-35.968,19.917c-4.702-2.347-9.882-3.558-15.138-3.55
	c-18.85,0-34.133,15.283-34.133,34.133H83.789l-30.711-153.6H102.4v42.667c0,14.14,11.46,25.6,25.6,25.6
	c14.14,0,25.6-11.46,25.6-25.6v-34.133c0-4.71,3.823-8.533,8.533-8.533s8.533,3.823,8.533,8.533v8.533c0,14.14,11.46,25.6,25.6,25.6
	s25.6-11.46,25.6-25.6v-17.067h237.056L428.228,494.931z M494.933,315.731c0,4.71-3.823,8.533-8.533,8.533H221.867v-17.067H486.4
	C491.11,307.197,494.933,311.012,494.933,315.731z M399.36,267.944c1.382,4.147,5.666,6.579,9.933,5.641
	c1.502-0.35,3.038-0.521,4.574-0.521c10.138,0,18.876,7.134,20.907,17.067h-90.556c-7.177-14.805-0.99-32.623,13.807-39.799
	c14.805-7.177,32.623-0.99,39.799,13.807C398.43,265.367,398.942,266.638,399.36,267.944z M409.6,170.664h-71.979l-10.59-45.901
	C319.514,91.611,289.988,68.127,256,68.264h-0.435c0.247-1.408,0.393-2.842,0.435-4.267v-12.8h153.6V170.664z"/>
<path d="M34.133,136.531c18.85,0,34.133-15.283,34.133-34.133S52.983,68.264,34.133,68.264S0,83.547,0,102.397
	S15.283,136.531,34.133,136.531z M34.133,85.331c9.429,0,17.067,7.637,17.067,17.067s-7.637,17.067-17.067,17.067
	s-17.067-7.637-17.067-17.067S24.704,85.331,34.133,85.331z"/>
<path d="M59.733,179.197c0,14.14,11.46,25.6,25.6,25.6s25.6-11.46,25.6-25.6c0-14.14-11.46-25.6-25.6-25.6
	S59.733,165.058,59.733,179.197z M93.867,179.197c0,4.71-3.823,8.533-8.533,8.533c-4.71,0-8.533-3.823-8.533-8.533
	s3.823-8.533,8.533-8.533C90.044,170.664,93.867,174.478,93.867,179.197z"/>
<g>
</g>
<g>
</g>
<g>
</g>
<g>
</g>
<g>
</g>
<g>
</g>
<g>
</g>
<g>
</g>
<g>
</g>
<g>
</g>
<g>
</g>
<g>
</g>
<g>
</g>
<g>
</g>
<g>
</g>
</svg>
